# xmcd
#
# Track frame offsets:
# 182
# 19190
# 37995
# 51982
# 66340
# 77852
# 94802
# 111370
# 124552
# 139515
# 154892
# 168905
# 186227
# 198120
# 214345
#
# Disc length: 3050 seconds
#
#
# Revision: 0
# Processed by: cddbd v1.5.2PL0 Copyright (c) Steve Scherf et al.
# Submitted via: FreeRIP 2.944 
#
DISCID=d10be80f
DTITLE=Flavio Jose - Flavio Jose
DYEAR=1900
DGENRE=Forró
TTITLE0=Tareco e Mariola
TTITLE1=Quando Bate o Coração
TTITLE2=Festa do Vaqueiro
TTITLE3=O Dom do Amor
TTITLE4=Um Verdadeiro Amor
TTITLE5=Um Passarinho
TTITLE6=Represa do Querer
TTITLE7=Sertão
TTITLE8=Balançando a Tanajura
TTITLE9=Imitando os Oitos Baixos
TTITLE10=Sina de Caboclo
TTITLE11=A Casa da Saudade
TTITLE12=Pimenta no Salão
TTITLE13=Quem Sou Eu Sem Voce
TTITLE14=Flavinho no Forro
EXTD=
EXTT0=
EXTT1=
EXTT2=
EXTT3=
EXTT4=
EXTT5=
EXTT6=
EXTT7=
EXTT8=
EXTT9=
EXTT10=
EXTT11=
EXTT12=
EXTT13=
EXTT14=
PLAYORDER=
